HIERARCHY
ROOT root
{
	OFFSET	0	13.1	24.9
	CHANNELS 6  Xposition Yposition Zposition Xrotation Yrotation Zrotation
	JOINT spine_1
	{
		OFFSET	0	9.99999	0
		CHANNELS 3  Xrotation Yrotation Zrotation
		JOINT spine_2
		{
			OFFSET	0	112	-10
			CHANNELS 3  Xrotation Yrotation Zrotation
			JOINT spine_3
			{
				OFFSET	0	206.5	19.3
				CHANNELS 3  Xrotation Yrotation Zrotation
				JOINT spine_4
				{
					OFFSET	0	110.4	14.6
					CHANNELS 3  Xrotation Yrotation Zrotation
					JOINT neck_1
					{
						OFFSET	0	71.8	-50.3
						CHANNELS 3  Xrotation Yrotation Zrotation
						JOINT neck_2
						{
							OFFSET	0	86.2	-25.8
							CHANNELS 3  Xrotation Yrotation Zrotation
							JOINT head_ee
							{
								OFFSET	0	179.8	-8.7
								CHANNELS 3  Xrotation Yrotation Zrotation
								End Site
								{
									OFFSET	1	0	0
								}
							}
						}
					}
					JOINT left_clavicle
					{
						OFFSET	-43.2	22.4	-70.8
						CHANNELS 3  Xrotation Yrotation Zrotation
						JOINT left_shoulder
						{
							OFFSET	-93.9	-5.79999	48.7
							CHANNELS 3  Xrotation Yrotation Zrotation
							JOINT left_elbow
							{
								OFFSET	-291.4	-30.8	15.2
								CHANNELS 3  Xrotation Yrotation Zrotation
								JOINT left_lowarm_twist
								{
									OFFSET	-110.7	-3.89999	13.6
									CHANNELS 3  Xrotation Yrotation Zrotation
									JOINT left_hand
									{
										OFFSET	-110.7	-3.89999	13.6
										CHANNELS 3  Xrotation Yrotation Zrotation
										JOINT left_ee
										{
											OFFSET	-80.8	-5.10001	12.1
											CHANNELS 3  Xrotation Yrotation Zrotation
											End Site
											{
												OFFSET	1	0	0
											}
										}
									}
								}
							}
						}
					}
					JOINT right_clavicle
					{
						OFFSET	43.2	22.4	-70.8
						CHANNELS 3  Xrotation Yrotation Zrotation
						JOINT right_shoulder
						{
							OFFSET	93.9	-5.79999	48.7
							CHANNELS 3  Xrotation Yrotation Zrotation
							JOINT right_elbow
							{
								OFFSET	291.4	-30.8	15.2
								CHANNELS 3  Xrotation Yrotation Zrotation
								JOINT right_lowarm_twist
								{
									OFFSET	110.7	-3.89999	13.6
									CHANNELS 3  Xrotation Yrotation Zrotation
									JOINT right_hand
									{
										OFFSET	110.7	-3.89999	13.6
										CHANNELS 3  Xrotation Yrotation Zrotation
										JOINT right_ee
										{
											OFFSET	80.8	-5.10001	12.1
											CHANNELS 3  Xrotation Yrotation Zrotation
											End Site
											{
												OFFSET	1	0	0
											}
										}
									}
								}
							}
						}
					}
				}
			}
		}
	}
	JOINT left_hip
	{
		OFFSET	-82.8	-127.5	0.300001
		CHANNELS 3  Xrotation Yrotation Zrotation
		JOINT left_knee
		{
			OFFSET	-28.2	-396.7	2.2
			CHANNELS 3  Xrotation Yrotation Zrotation
			JOINT left_ankle
			{
				OFFSET	-11.7	-411.3	35.4
				CHANNELS 3  Xrotation Yrotation Zrotation
				JOINT left_toes
				{
					OFFSET	0	-60	-88.6
					CHANNELS 3  Xrotation Yrotation Zrotation
					JOINT left_foot_ee
					{
						OFFSET	-22.5	-16.5	-42.2
						CHANNELS 3  Xrotation Yrotation Zrotation
						End Site
						{
							OFFSET	1	0	0
						}
					}
				}
			}
		}
	}
	JOINT right_hip
	{
		OFFSET	82.8	-127.5	0.300001
		CHANNELS 3  Xrotation Yrotation Zrotation
		JOINT right_knee
		{
			OFFSET	28.2	-396.7	2.2
			CHANNELS 3  Xrotation Yrotation Zrotation
			JOINT right_ankle
			{
				OFFSET	11.7	-411.3	35.4
				CHANNELS 3  Xrotation Yrotation Zrotation
				JOINT right_toes
				{
					OFFSET	0	-60	-88.6
					CHANNELS 3  Xrotation Yrotation Zrotation
					JOINT right_foot_ee
					{
						OFFSET	22.5	-16.5	-42.2
						CHANNELS 3  Xrotation Yrotation Zrotation
						End Site
						{
							OFFSET	1	0	0
						}
					}
				}
			}
		}
	}
}
MOTION
Frames: 7
Frame Time: 0.02
2771.46909174 746.911 -1576.64233644 18.3224647866 70.1014990673 -5.47643416611 -2.5179 -0.48734 -2.91262 -2.51323 -0.301097 -2.9377 -2.49203 0.450645 -2.91852 -2.50391 -0.0157278 -2.95304 -18.8527 14.4857 10.0276 -19.2342 22.6618 15.1612 -0.0 0.0 -0.0 10.7283 17.5173 19.0911 -11.9028 -32.6594 46.0278 1.07352 -28.0029 0.267695 -49.2772 -3.98732 4.64457 -3.22328 24.655 -8.50842 -0.0 0.0 -0.0 4.41382 8.86913 -8.03994 -11.3699 23.4443 -62.1719 0.437905 12.2395 -0.0469515 -24.4518 1.46894 -2.73586 0.27998 1.70914 -1.15538 0.0 0.0 0.0 -3.34278 3.63654 -12.7376 -9.68484 0.275998 1.45893 37.6678 19.7712 -4.80227 -37.5071 0.0 0.0 -0.0 0.0 -0.0 7.85289 10.6825 -14.0049 -33.3875 0.100517 -5.05107 -20.9958 -25.9405 -3.306 9.08167 -0.0 -0.0 0.0 0.0 0.0 
2767.50393943 746.103 -1560.35131128 19.5581972275 70.4628031258 -6.78151895157 -2.45496 -0.510524 -3.01176 -2.44997 -0.317934 -3.03811 -2.42702 0.456292 -3.02044 -2.43975 -0.0262258 -3.05457 -16.703 15.3551 9.64481 -17.0578 24.0959 14.6475 -0.0 0.0 -0.0 10.725 17.7737 19.0406 -9.95339 -33.2625 46.1904 1.12535 -29.1372 0.292482 -49.6175 -4.02703 4.66275 -3.45352 23.84 -10.3115 -0.0 0.0 -0.0 4.40286 9.42718 -7.98049 -12.0213 23.1098 -61.4741 0.371584 10.43 -0.033915 -24.7214 1.49142 -2.7621 0.0163465 -0.247787 -0.213484 0.0 0.0 0.0 -4.11479 4.44453 -12.3105 -9.57892 0.274321 1.44276 36.7954 21.5965 -4.75779 -40.0358 0.0 0.0 -0.0 0.0 -0.0 10.3665 12.1611 -14.556 -31.1281 0.000794436 -4.71875 -19.311 -26.2905 -3.0446 9.20823 -0.0 -0.0 0.0 0.0 0.0 
2758.50579515 743.063 -1538.83244807 21.0908187452 72.1961410809 -8.87306422091 -2.33137 -0.508947 -3.09878 -2.32608 -0.310831 -3.12485 -2.30289 0.478291 -3.10366 -2.31633 -0.0176246 -3.14021 -18.8074 14.7131 8.64801 -19.3441 23.8119 14.017 -0.0 0.0 -0.0 10.1473 17.8296 18.0578 -8.02402 -34.0471 47.6884 1.29649 -32.7088 0.380472 -50.8957 -4.17712 4.72893 -3.28232 19.0755 -12.0514 -0.0 0.0 -0.0 4.50858 10.3659 -8.13748 -15.25 21.5738 -60.2239 0.328221 9.23517 -0.0265095 -24.0592 1.43643 -2.69745 -0.180442 -3.99786 -0.48538 0.0 0.0 0.0 -6.90649 7.58006 -10.4337 -4.9375 0.171569 0.738102 38.1049 19.6196 -4.84124 -39.6392 0.0 0.0 -0.0 0.0 -0.0 18.4503 13.602 -15.9284 -29.1534 -0.0755612 -4.42533 -17.2917 -29.3423 -2.77397 12.2741 -0.0 -0.0 0.0 0.0 0.0 
2751.52630596 741.489 -1525.14473684 19.8514654924 72.8438797191 -7.43314938679 -2.1182 -0.436719 -3.36803 -2.11192 -0.221644 -3.38896 -2.09211 0.618481 -3.33946 -2.10766 0.0836301 -3.39516 -16.7614 14.7187 7.00145 -17.275 24.3558 12.02 -0.0 0.0 -0.0 9.92186 18.2206 17.6204 -5.99721 -34.3096 49.0103 1.41428 -35.0128 0.446116 -51.3574 -4.23168 4.75201 -3.64602 18.684 -14.5326 -0.0 0.0 -0.0 4.49317 10.5475 -8.09296 -16.5756 20.1234 -59.807 0.265502 7.49282 -0.0173853 -24.1011 1.43989 -2.70157 -0.544762 -5.80745 1.13907 0.0 0.0 0.0 -5.8446 8.5301 -10.7173 -7.23255 0.229516 1.08552 37.8894 19.5125 -4.81819 -40.1262 0.0 0.0 -0.0 0.0 -0.0 21.1931 16.11 -16.7817 -27.9223 -0.118022 -4.24117 -15.2472 -28.2146 -2.42492 10.8549 -0.0 -0.0 0.0 0.0 0.0 
2737.1474935 736.942 -1519.67980445 15.590109909 71.8177420667 -3.40828590078 -1.92691 -0.437058 -3.74394 -1.91914 -0.198108 -3.76413 -1.89837 0.721267 -3.69978 -1.91745 0.128338 -3.76715 -17.7055 14.5884 5.77233 -18.3741 24.9233 11.0952 -0.0 0.0 -0.0 10.3066 20.3265 17.894 -2.3424 -33.6286 50.4716 1.73055 -40.6018 0.640224 -53.0486 -4.43309 4.83277 -3.65525 14.8537 -16.8632 -0.0 0.0 -0.0 4.20488 11.1899 -7.44505 -19.6724 17.9554 -59.4998 0.314728 8.86167 -0.0243874 -23.4529 1.38675 -2.63773 -0.917512 -10.0647 1.70773 0.0 0.0 0.0 -5.42481 11.4462 -9.80946 -5.11624 0.176582 0.765075 40.2465 17.471 -4.99724 -39.9886 0.0 0.0 -0.0 0.0 -0.0 25.923 20.779 -17.971 -19.4628 -0.301644 -2.95715 -3.38844 -28.6795 -0.532137 13.4772 -0.0 -0.0 0.0 0.0 0.0 
2736.47981198 736.942 -1521.65743135 15.3823721804 71.5696858286 -3.18947488206 -1.92691 -0.437058 -3.74394 -1.91914 -0.198108 -3.76413 -1.89837 0.721267 -3.69978 -1.91745 0.128338 -3.76715 -17.7055 14.5884 5.77233 -18.3741 24.9233 11.0952 -0.0 0.0 -0.0 10.3066 20.3265 17.894 -2.3424 -33.6286 50.4716 1.73055 -40.6018 0.640224 -53.0486 -4.43309 4.83277 -3.65525 14.8537 -16.8632 -0.0 0.0 -0.0 4.20488 11.1899 -7.44505 -19.6724 17.9554 -59.4998 0.314728 8.86167 -0.0243874 -23.4529 1.38675 -2.63773 -0.917512 -10.0647 1.70773 0.0 0.0 0.0 -5.42481 11.4462 -9.80946 -5.11624 0.176582 0.765075 40.2465 17.471 -4.99724 -39.9886 0.0 0.0 -0.0 0.0 -0.0 25.923 20.779 -17.971 -19.4628 -0.301644 -2.95715 -3.38844 -28.6795 -0.532137 13.4772 -0.0 -0.0 0.0 0.0 0.0 
2725.63878022 729.016 -1522.60279031 13.282752686 70.706488919 -1.3327068408 -1.84941 -0.43182 -3.74475 -1.84163 -0.19283 -3.7646 -1.82138 0.721536 -3.69992 -1.84046 0.12858 -3.76734 -18.3863 14.2115 5.97931 -19.0456 24.1786 11.2904 -0.0 0.0 -0.0 10.4114 20.9712 17.9435 -0.305239 -32.4837 51.0259 2.09813 -46.0999 0.892847 -53.437 -4.47968 4.85048 -3.28453 13.2986 -15.3369 -0.0 0.0 -0.0 2.85094 11.2696 -4.61107 -20.0413 17.7843 -61.523 0.421775 11.8015 -0.043592 -23.6775 1.40508 -2.65991 -0.994017 -10.8168 1.86565 0.0 0.0 0.0 -5.84432 12.4239 -9.24667 -4.0606 0.145759 0.606002 41.5307 15.3806 -5.07368 -40.2054 0.0 0.0 -0.0 0.0 -0.0 27.5232 22.3493 -17.5956 -15.3025 -0.322003 -2.31929 -3.30233 -27.8896 -0.51597 13.6728 -0.0 -0.0 0.0 0.0 0.0 
